<svg xmlns="http://www.w3.org/2000/svg" width="1280" height="360" viewBox="0 0 1280 360" role="img" aria-label="Thor project banner">
  <defs>
    <linearGradient id="bg" x1="0" y1="0" x2="1" y2="1"><stop stop-color="#020617"/><stop offset=".55" stop-color="#0f172a"/><stop offset="1" stop-color="#1e293b"/></linearGradient>
    <linearGradient id="bolt" x1="0" y1="0" x2="1" y2="1"><stop stop-color="#38bdf8"/><stop offset="1" stop-color="#fbbf24"/></linearGradient>
  </defs>
  <rect width="1280" height="360" fill="url(#bg)"/>
  <circle cx="1030" cy="80" r="180" fill="#1d4ed8" opacity=".16"/>
  <circle cx="1150" cy="270" r="230" fill="#f59e0b" opacity=".10"/>
  <g transform="translate(90 62)">
    <rect width="236" height="236" rx="44" fill="#111827" stroke="#334155"/>
    <path d="M118 24 43 65v66c0 44 31 68 75 88 44-20 75-44 75-88V65L118 24Z" fill="#0f172a" stroke="url(#bolt)" stroke-width="7"/>
    <path d="M134 45 84 126h35l-17 61 51-82h-36l17-60Z" fill="url(#bolt)"/>
  </g>
  <text x="380" y="132" font-family="Inter,Arial,sans-serif" font-size="74" font-weight="800" fill="#f8fafc">Thor</text>
  <text x="382" y="188" font-family="Inter,Arial,sans-serif" font-size="32" font-weight="600" fill="#bae6fd">The Automated Recon &amp; XSS Hunting Framework</text>
  <text x="382" y="238" font-family="Inter,Arial,sans-serif" font-size="22" fill="#cbd5e1">Bash-first • Kali Linux • Plugin-based • Authorized assessments only</text>
  <g font-family="Inter,Arial,sans-serif" font-size="16" fill="#e2e8f0">
    <rect x="382" y="272" width="150" height="38" rx="19" fill="#1e293b" stroke="#334155"/><text x="457" y="297" text-anchor="middle">Subfinder</text>
    <rect x="548" y="272" width="126" height="38" rx="19" fill="#1e293b" stroke="#334155"/><text x="611" y="297" text-anchor="middle">httpx</text>
    <rect x="690" y="272" width="138" height="38" rx="19" fill="#1e293b" stroke="#334155"/><text x="759" y="297" text-anchor="middle">Katana</text>
    <rect x="844" y="272" width="132" height="38" rx="19" fill="#1e293b" stroke="#334155"/><text x="910" y="297" text-anchor="middle">Dalfox</text>
  </g>
</svg>
